# AST/ASF file generated using VICON BodyLanguage
# -----------------------------------------------
:version 1.10
:name VICON
:units
  mass 1.0
  length 0.45
  angle deg
:documentation
   .ast/.asf automatically generated from VICON data using
   VICON BodyBuilder and BodyLanguage model FoxedUp or BRILLIANT.MOD
:root
   order TX TY TZ RX RY RZ
   axis XYZ
   position 0 0 0  
   orientation 0 0 0 
:bonedata
  begin
     id 1 
     name lhipjoint
     direction 0.54267 -0.795011 0.271047 
     length 2.39899 
     axis 0 0 0  XYZ
  end
  begin
     id 2 
     name lfemur
     direction 0.34202 -0.939693 0  
     length 7.49701  
     axis 0 0 20  XYZ
    dof rx ry rz
    limits (-160.0 20.0)
           (-70.0 70.0)
           (-60.0 70.0)
  end
  begin
     id 3 
     name ltibia
     direction 0.34202 -0.939693 0   
     length 8.1668   
     axis 0 0 20   XYZ
    dof rx
    limits (-10.0 170.0)
  end
  begin
     id 4 
     name lfoot
     direction 0.0736283 -0.202292 0.976554   
     length 2.13544   
     axis -90 7.62852e-016 20   XYZ
    dof rx rz
    limits (-45.0 90.0)
           (-70.0 20.0)
  end
  begin
     id 5 
     name ltoes
     direction 1.53557e-011 -4.22024e-011 1   
     length 1.07411   
     axis -90 7.62852e-016 20   XYZ
    dof rx
    limits (-90.0 20.0)
  end
  begin
     id 6 
     name rhipjoint
     direction -0.538061 -0.797813 0.272002   
     length 2.39057  
     axis 0 0 0  XYZ 
  end
  begin
     id 7 
     name rfemur
     direction -0.34202 -0.939693 0   
     length 7.50152   
     axis 0 0 -20   XYZ
    dof rx ry rz
    limits (-160.0 20.0)
           (-70.0 70.0)
           (-70.0 60.0)
  end
  begin
     id 8 
     name rtibia
     direction -0.34202 -0.939693 0   
     length 8.05793   
     axis 0 0 -20   XYZ
    dof rx
    limits (-10.0 170.0)
 end
 begin
     id 9 
     name rfoot
     direction -0.0765195 -0.210236 0.974652   
     length 2.28698  
     axis -90 -7.62852e-016 -20   XYZ
    dof rx rz
    limits (-45.0 90.0)
           (-20.0 70.0)
  end
  begin
     id 10 
     name rtoes
     direction -1.53542e-011 -4.21847e-011 1   
     length 1.14762   
     axis -90 -7.62852e-016 -20   XYZ
    dof rx
    limits (-90.0 20.0)
  end
  begin
     id 11 
     name lowerback
     direction -0.0217239 0.996592 -0.0795765   
     length 2.08176   
     axis 0 0 0   XYZ
    dof rx ry rz
    limits (-20.0 45.0)
           (-30.0 30.0)
           (-30.0 30.0)
  end
  begin
     id 12 
     name upperback
     direction -0.00563773 0.999651 -0.0258155   
     length 2.08898   
     axis 0 0 0   XYZ
    dof rx ry rz
    limits (-20.0 45.0)
           (-30.0 30.0)
           (-30.0 30.0)
  end
  begin
     id 13 
     name thorax
     direction 0.0032706 0.999923 0.0119599   
     length 2.0968   
     axis 0 0 0   XYZ
    dof rx ry rz
    limits (-20.0 45.0)
           (-30.0 30.0)
           (-30.0 30.0)
  end
  begin
     id 14 
     name lowerneck
     direction -0.0285886 0.99568 0.0883427   
     length 1.81272   
     axis 0 0 0   XYZ
    dof rx ry rz
    limits (-20.0 45.0)
           (-30.0 30.0)
           (-30.0 30.0)
  end
  begin
     id 15 
     name upperneck
     direction 0.0807535 0.97985 -0.18268   
     length 1.82518   
     axis 0 0 0   XYZ
    dof rx ry rz
    limits (-20.0 45.0)
           (-30.0 30.0)
           (-30.0 30.0)
  end
  begin
     id 16
     name head
     direction 0.0236605 0.997053 -0.0729767  
     length 1.84443  
     axis 0 0 0   XYZ
    dof rx ry rz
    limits (-20.0 45.0)
           (-30.0 30.0)
           (-30.0 30.0)
  end
  begin
     id 17 
     name lclavicle
     direction 0.918986 0.39378 -0.0200683  
     length 3.27822  
     axis 0 0 0   XYZ
    dof ry rz
    limits (-20.0 10.0)
           (0.0 20.0)
  end
  begin
     id 18 
     name lhumerus
     direction 1 -4.4897e-011 2.09544e-027   
     length 5.5568   
     axis 180 -30 -90   XYZ
    dof rx ry rz
    limits (-60.0 90.0)
           (-90.0 90.0)
           (-90.0 90.0)
  end
  begin
     id 19
     name lradius
     direction 1 -4.48957e-011 -1.27696e-026   
     length 3.63979   
     axis 180 -30 -90   XYZ
    dof rx
    limits (-10.0 170.0)
  end
  begin
     id 20
     name lwrist
     direction 1 -4.49001e-011 -1.49001e-026   
     length 1.8199   
     axis 9.0955e-015 90 90   XYZ
    dof ry
    limits (-180.0 0.0)
 end
  begin
     id 21 
     name lhand
     direction 1 -4.48709e-011 -2.9758e-026   
     length 0.569419   
     axis 1.90115e-014 90 90   XYZ
    dof rx rz
    limits (-90.0 90.0)
           (-45.0 45.0)
  end
  begin
     id 22 
     name lfingers
     direction 1 -4.49175e-011 -5.96505e-026   
     length 0.45908   
     axis 3.80223e-014 90 90   XYZ
    dof rx
    limits (0.0 90.0)
  end
  begin
     id 23
     name lthumb
     direction 0.707107 -6.34864e-011 0.707107   
     length 0.65915   
     axis -90 45 -3.84942e-014   XYZ
    dof rx rz
    limits (-45.0 45.0)
           (-45.0 45.0)
  end
  begin
     id 24 
     name rclavicle
     direction -0.911913 0.396426 -0.106115   
     length 3.46301  
     axis 0 0 0   XYZ 
    dof ry rz
    limits (-10.0 20.0)
           (-20.0 0.0)
  end
  begin
     id 25 
     name rhumerus
     direction -1 -4.48965e-011 7.78516e-028  
     length 5.34339   
     axis 180 30 90   XYZ
    dof rx ry rz
    limits (-90.0 60.0)
           (-90.0 90.0)
           (-90.0 90.0)
  end
  begin
     id 26 
     name rradius
     direction -1 -4.48948e-011 -5.79823e-027   
     length 3.65101   
     axis 180 30 90   XYZ
    dof rx
    limits (-10.0 170.0)
  end
  begin
     id 27 
     name rwrist
     direction -1 -4.48995e-011 -1.48996e-026   
     length 1.8255   
     axis 9.0955e-015 -90 -90   XYZ
    dof ry
    limits (-180.0 0.0)
  end
  begin
     id 28
     name rhand
     direction -1 -4.48957e-011 -2.97937e-026   
     length 0.694249   
     axis 1.90115e-014 -90 -90   XYZ
    dof rx rz
    limits (-90.0 90.0)
           (-45.0 45.0)
  end
  begin
     id 29
     name rfingers
     direction -1 -4.4898e-011 -5.95943e-026   
     length 0.559721   
     axis 3.80223e-014 -90 -90   XYZ
    dof rx
    limits (0.0 90.0)
  end
  begin
     id 30
     name rthumb
     direction -0.707107 -6.34969e-011 0.707107   
     length 0.803651   
     axis -90 -45 3.84942e-014   XYZ
    dof rx rz
    limits (-45.0 45.0)
           (-45.0 45.0)
  end
:hierarchy
  begin
    root lhipjoint rhipjoint lowerback
    lhipjoint lfemur
    lfemur ltibia
    ltibia lfoot
    lfoot ltoes
    rhipjoint rfemur
    rfemur rtibia
    rtibia rfoot
    rfoot rtoes
    lowerback upperback
    upperback thorax
    thorax lowerneck lclavicle rclavicle
    lowerneck upperneck
    upperneck head
    lclavicle lhumerus
    lhumerus lradius
    lradius lwrist
    lwrist lhand lthumb
    lhand lfingers
    rclavicle rhumerus
    rhumerus rradius
    rradius rwrist
    rwrist rhand rthumb
    rhand rfingers
  end

#!OML:ASF H:\Terrain\Walking\May29\JustinRory\rory.ASF
:FULLY-SPECIFIED
:DEGREES
96
root 12.6091 18.4999 -6.56035 -1.53411 -13.0596 0.804353
lowerback 1.0036 1.70076 -3.284
upperback 0.105308 2.21733 -1.93742
thorax -0.50233 1.11137 -0.178996
lowerneck -11.3338 -8.80165 -9.90929
upperneck 28.7392 -12.5038 6.60285
head 12.4508 -5.95173 2.3208
rclavicle 2.60222e-014 -8.74653e-015
rhumerus -54.0896 20.2742 -106.397
rradius 88.3106
rwrist -10.9258
rhand -31.7577 34.8793
rfingers 7.12502
rthumb -5.01476 4.9586
lclavicle 2.60222e-014 -8.74653e-015
lhumerus -63.6723 30.5743 41.5079
lradius 33.0783
lwrist 156.575
lhand -27.0008 -22.9633
lfingers 7.12502
lthumb -0.420897 7.01605
rfemur -6.18463 1.16467 19.1045
rtibia 42.0165
rfoot -9.00961 -2.15074
rtoes -6.55292
lfemur -16.113 -4.55094 -18.0404
ltibia 23.9266
lfoot -5.22839 1.78178
ltoes -1.42272
97
root 12.6189 18.4983 -6.50743 -1.84865 -13.6693 1.35601
lowerback 1.08151 2.01519 -3.8977
upperback 0.363089 2.63436 -1.87455
thorax -0.320824 1.31534 0.222143
lowerneck -11.9238 -9.08525 -10.7636
upperneck 29.2605 -12.7766 6.83976
head 12.9076 -6.10897 2.47358
rclavicle -1.94441e-014 1.35174e-014
rhumerus -53.4989 19.9158 -105.279
rradius 87.0739
rwrist -10.1545
rhand -32.7101 36.5976
rfingers 7.12502
rthumb -5.93433 6.70072
lclavicle -1.94441e-014 1.35174e-014
lhumerus -62.1779 30.4105 43.4465
lradius 33.0478
lwrist 156.372
lhand -25.2402 -17.95
lfingers 7.12502
lthumb 1.27956 12.0259
rfemur -6.45988 0.955755 18.2414
rtibia 42.7529
rfoot -9.66536 -3.21014
rtoes -8.73775
lfemur -15.6688 -4.06942 -18.7356
ltibia 23.974
lfoot -5.71293 2.07555
ltoes 1.28407
98
root 12.6394 18.4957 -6.45313 -2.20119 -14.2851 2.23595
lowerback 1.20529 2.15875 -4.66656
upperback 0.308008 2.80432 -2.06664
thorax -0.479294 1.40287 0.442312
lowerneck -11.7179 -9.08229 -11.1428
upperneck 29.5735 -12.7515 6.89208
head 13.0287 -6.13891 2.56825
rclavicle -2.41974e-014 -4.77083e-015
rhumerus -53.3511 19.5377 -104.844
rradius 85.8706
rwrist -9.2668
rhand -33.045 37.8281
rfingers 7.12502
rthumb -6.25766 7.94054
lclavicle -2.41974e-014 -4.77083e-015
lhumerus -61.3456 30.0999 44.3239
lradius 32.9748
lwrist 156.649
lhand -25.2502 -16.6662
lfingers 7.12502
lthumb 1.26996 13.3098
rfemur -6.77162 0.596189 16.9302
rtibia 43.4442
rfoot -10.3534 -4.11394
rtoes -8.45429
lfemur -15.1992 -4.08561 -19.7889
ltibia 23.9695
lfoot -6.11189 2.72538
ltoes 2.66306
99
root 12.6498 18.4995 -6.41415 -2.23908 -14.7573 2.48428
lowerback 1.2909 1.99481 -5.06029
upperback -0.0810293 2.55405 -2.25065
thorax -0.925693 1.2912 0.464885
lowerneck -10.6053 -8.67396 -10.5831
upperneck 29.5345 -12.3417 6.67751
head 12.668 -5.9663 2.517
rclavicle 2.59662e-015 -3.02153e-014
rhumerus -53.5395 19.2803 -105.364
rradius 84.4999
rwrist -8.82937
rhand -33.2929 39.2041
rfingers 7.12502
rthumb -6.49694 9.32378
lclavicle 2.59662e-015 -3.02153e-014
lhumerus -61.186 29.6405 44.081
lradius 33.1568
lwrist 157.535
lhand -26.5301 -19.1415
lfingers 7.12502
lthumb 0.0337532 10.8383
rfemur -7.34425 0.257687 16.4133
rtibia 44.0322
rfoot -10.9524 -5.25896
rtoes -6.5955
lfemur -15.0451 -3.68187 -20.0979
ltibia 23.9993
lfoot -6.3582 2.77196
ltoes 2.97735
100
root 12.6486 18.5019 -6.39392 -2.16568 -15.1861 2.26768
lowerback 1.40537 2.21954 -5.09322
upperback 0.213628 2.86044 -2.03509
thorax -0.713271 1.43669 0.698595
lowerneck -11.7266 -8.97915 -10.925
upperneck 29.9203 -12.6532 6.7686
head 13.1359 -6.08792 2.50389
rclavicle -4.18783e-014 1.35174e-014
rhumerus -52.0923 18.9431 -104.26
rradius 83.1386
rwrist -8.90134
rhand -33.5574 40.3641
rfingers 7.12502
rthumb -6.7523 10.4918
lclavicle -4.18783e-014 1.35174e-014
lhumerus -59.2451 30.048 45.5802
lradius 33.0237
lwrist 157.289
lhand -27.2707 -21.1418
lfingers 7.12502
lthumb -0.681567 8.83688
rfemur -7.8925 0.135562 16.5496
rtibia 44.4529
rfoot -11.4163 -6.66494
rtoes -5.36243
lfemur -15.022 -2.98641 -19.841
ltibia 24.0637
lfoot -6.48882 2.5067
ltoes 2.79932
101
root 12.6679 18.5034 -6.3238 -2.49856 -16.3399 2.07627
lowerback 1.25701 2.45251 -4.79897
upperback 0.462239 3.19739 -1.89031
thorax -0.383519 1.59528 0.689096
lowerneck -12.0847 -8.92814 -10.9943
upperneck 30.249 -12.5141 6.64391
head 13.3314 -6.03697 2.47629
rclavicle -4.80057e-014 1.03368e-014
rhumerus -51.4762 19.0178 -103.74
rradius 82.0795
rwrist -8.73667
rhand -33.581 40.5274
rfingers 7.12502
rthumb -6.77506 10.6558
lclavicle -4.80057e-014 1.03368e-014
lhumerus -58.2438 30.2054 46.5218
lradius 33.0427
lwrist 157.225
lhand -27.0695 -21.3342
lfingers 7.12502
lthumb -0.487205 8.645
rfemur -7.8602 0.453741 16.4463
rtibia 44.6424
rfoot -11.9261 -7.63286
rtoes -4.40758
lfemur -14.229 -3.86008 -19.6962
ltibia 24.0781
lfoot -7.35353 4.35757
ltoes 2.10979
102
root 12.6787 18.507 -6.29277 -2.31479 -16.6709 1.98264
lowerback 1.03994 2.20228 -4.90511
upperback 0.386473 2.87471 -1.78342
thorax -0.335112 1.43435 0.871885
lowerneck -11.9165 -8.58631 -10.8082
upperneck 30.2289 -12.0092 6.43938
head 13.198 -5.82853 2.46381
rclavicle 5.66179e-014 3.97569e-015
rhumerus -51.0955 19.2445 -103.716
rradius 81.0801
rwrist -8.51328
rhand -33.4922 40.2918
rfingers 7.12502
rthumb -6.68938 10.4174
lclavicle 5.66179e-014 3.97569e-015
lhumerus -57.8508 30.2821 47.0143
lradius 33.4861
lwrist 157.826
lhand -27.1068 -21.4666
lfingers 7.12502
lthumb -0.523222 8.5125
rfemur -8.36644 0.0686191 16.3225
rtibia 44.7166
rfoot -12.3487 -8.72472
rtoes -2.22282
lfemur -14.185 -3.94764 -19.6245
ltibia 23.9841
lfoot -7.40559 4.81277
ltoes 1.17496
103
root 12.6928 18.5107 -6.25269 -2.45023 -16.9289 2.5426
lowerback 0.814881 1.91475 -5.58115
upperback 0.398535 2.50083 -1.89317
thorax -0.200926 1.24378 1.15032
lowerneck -11.7342 -8.23288 -10.5902
upperneck 30.0609 -11.5506 6.43168
head 13.0188 -5.61321 2.51258
rclavicle -3.85611e-014 -1.03368e-014
rhumerus -50.6232 19.5729 -103.905
rradius 80.0743
rwrist -8.67616
rhand -32.7157 40.747
rfingers 7.12502
rthumb -5.9397 10.8503
lclavicle -3.85611e-014 -1.03368e-014
lhumerus -57.5402 30.4067 47.259
lradius 33.9341
lwrist 158.407
lhand -27.8346 -22.1791
lfingers 7.12502
lthumb -1.22616 7.79709
rfemur -8.65652 -0.450004 15.4213
rtibia 44.661
rfoot -12.3846 -9.90613
rtoes -0.472161
lfemur -13.9421 -4.23271 -20.3147
ltibia 23.8934
lfoot -7.77115 5.39139
ltoes 1.83338
104
root 12.704 18.5203 -6.21676 -2.64503 -17.2572 2.96852
lowerback 0.861284 1.8443 -5.99688
upperback 0.384553 2.39763 -2.06971
thorax -0.24428 1.19262 1.19945
lowerneck -11.5534 -8.06736 -10.4054
upperneck 29.8295 -11.4299 6.65828
head 12.8717 -5.52078 2.59711
rclavicle -3.17838e-014 -1.90833e-014
rhumerus -50.1163 19.4623 -103.962
rradius 79.2772
rwrist -8.87865
rhand -31.6182 41.4529
rfingers 7.12502
rthumb -4.88006 11.5291
lclavicle -3.17838e-014 -1.90833e-014
lhumerus -56.5031 30.0558 47.9565
lradius 34.2736
lwrist 158.548
lhand -27.4848 -22.0736
lfingers 7.12502
lthumb -0.888328 7.90426
rfemur -8.92071 -0.676941 14.7303
rtibia 44.5553
rfoot -12.5064 -11.2444
rtoes 1.7095
lfemur -13.6425 -4.5784 -20.8593
ltibia 23.8487
lfoot -8.2938 6.10374
ltoes 2.23632
105
root 12.7094 18.5297 -6.19739 -2.39571 -17.7451 2.28127
lowerback 0.949879 1.94732 -5.26556
upperback 0.300145 2.53191 -1.96948
thorax -0.36286 1.26434 0.889341
lowerneck -11.1193 -8.07921 -10.3833
upperneck 29.4238 -11.5251 6.85424
head 12.6352 -5.55262 2.66755
rclavicle -6.72762e-015 2.14687e-014
rhumerus -49.4418 18.864 -103.767
rradius 78.5537
rwrist -8.85587
rhand -31.0247 42.2135
rfingers 7.12502
rthumb -4.30695 12.2773
lclavicle -6.72762e-015 2.14687e-014
lhumerus -54.8624 29.3164 49.2365
lradius 34.4945
lwrist 158.292
lhand -25.9276 -21.1856
lfingers 7.12502
lthumb 0.615705 8.79325
rfemur -9.37578 -0.407683 15.3814
rtibia 44.3593
rfoot -13.1002 -12.3962
rtoes 3.89517
lfemur -13.5674 -4.67255 -20.1223
ltibia 23.7767
lfoot -8.56444 6.64383
ltoes 2.28836
106
root 12.7118 18.5276 -6.16647 -2.2817 -18.2806 1.92411
lowerback 0.745365 2.0131 -4.89518
upperback 0.379888 2.64174 -1.83427
thorax -0.161971 1.31451 0.830286
lowerneck -10.9127 -8.13544 -10.5017
upperneck 29.0379 -11.5498 6.80687
head 12.4432 -5.58922 2.67023
rclavicle -1.20203e-015 -1.51076e-014
rhumerus -48.6484 18.4842 -103.392
rradius 77.9362
rwrist -8.94868
rhand -30.3837 43.1297
rfingers 7.12502
rthumb -3.68802 13.1819
lclavicle -1.20203e-015 -1.51076e-014
lhumerus -53.583 29.078 50.2675
lradius 34.718
lwrist 158.556
lhand -25.2723 -20.1649
lfingers 7.12502
lthumb 1.2486 9.81122
rfemur -9.5984 -0.185029 15.6349
rtibia 44.073
rfoot -13.8754 -12.9963
rtoes 3.73201
lfemur -13.4175 -4.90393 -19.7399
ltibia 23.768
lfoot -8.84963 7.29262
ltoes 3.00621
107
root 12.713 18.5305 -6.13219 -2.47262 -18.6018 2.39543
lowerback 0.524585 1.96087 -5.41472
upperback 0.560338 2.5923 -1.88675
thorax 0.129743 1.27965 1.07794
lowerneck -11.2123 -8.14306 -10.4634
upperneck 28.7973 -11.4699 6.65869
head 12.386 -5.55785 2.60753
rclavicle 1.98971e-014 2.3059e-014
rhumerus -48.007 18.5765 -103.089
rradius 77.6965
rwrist -9.27062
rhand -30.5451 43.5705
rfingers 7.12502
rthumb -3.84387 13.6254
lclavicle 1.98971e-014 2.3059e-014
lhumerus -52.6454 29.1547 50.8942
lradius 35.1374
lwrist 159.556
lhand -25.5625 -19.7283
lfingers 7.12502
lthumb 0.968292 10.2492
rfemur -9.66728 -0.24472 14.9373
rtibia 43.6926
rfoot -14.4838 -13.2526
rtoes 3.66368
lfemur -13.2485 -5.08349 -20.2774
ltibia 23.8954
lfoot -9.06759 7.7368
ltoes 2.40811
